<svg width="367" height="311" viewBox="0 0 367 311" fill="none" xmlns="http://www.w3.org/2000/svg">
<g filter="url(#filter0_dddddf_2009_37)">
<path fill-rule="evenodd" clip-rule="evenodd" d="M181.117 95.0387C178.539 60.5239 111.532 -4.41623 94.5298 12.217C77.52 28.8573 143.939 94.4941 179.193 96.9671C179.872 97.0147 180.539 97.0389 181.193 97.0389C181.193 96.3845 181.168 95.7175 181.117 95.0387ZM103.064 11.5936C99.8974 11.3277 97.5605 12.05 95.9284 13.6466C94.3046 15.2351 93.5784 17.4929 93.8465 20.5569C94.1184 23.6657 95.4124 27.4394 97.6517 31.6941C102.122 40.1881 110.09 50.0949 119.759 59.5588C129.413 69.008 140.665 77.9186 151.614 84.4531C161.705 90.475 171.322 94.3481 179.104 94.9551C178.474 87.3765 174.533 77.9998 168.393 68.144C161.72 57.4324 152.618 46.4225 142.964 36.9737C133.296 27.5114 123.172 19.7099 114.485 15.3298C110.134 13.1363 106.264 11.8622 103.064 11.5936Z" fill="#60C2FF"/>
<path fill-rule="evenodd" clip-rule="evenodd" d="M179.745 109.135C143.267 76.06 10 76.5231 10 110.517C10 142.809 143.177 143.258 179.709 111.862C180.223 111.42 180.718 110.972 181.193 110.518C180.729 110.051 180.246 109.59 179.745 109.135ZM17.2448 100.735C13.7415 103.705 12 106.959 12 110.517C12 113.819 13.6989 116.88 17.206 119.705C20.739 122.55 25.9524 125.015 32.5189 127.025C45.6329 131.039 63.6047 133.077 82.7557 133.077C101.887 133.077 122.062 131.043 139.547 126.989C156.039 123.165 169.867 117.605 178.249 110.479C169.87 102.962 156.032 97.1026 139.526 93.075C122.049 88.8105 101.882 86.6703 82.7572 86.6705C63.6122 86.6706 45.6507 88.8157 32.5473 93.0362C25.9881 95.1489 20.7784 97.7402 17.2448 100.735Z" fill="#60C2FF"/>
<path fill-rule="evenodd" clip-rule="evenodd" d="M12 301.515H10C10 301.515 10 300.819 10.0444 299.515C10.6935 280.456 20.8325 131.572 179.193 130.329C179.857 130.324 180.524 130.322 181.193 130.322V132.322C181.192 216.586 181.026 258.884 159.794 280.116C138.562 301.348 96.2647 301.514 12 301.515ZM83.3316 158.735C106.668 143.177 137.747 132.657 179.193 132.329C179.193 174.169 179.149 205.51 176.531 229.072C173.869 253.024 168.584 268.498 158.38 278.702C148.176 288.905 132.702 294.191 108.75 296.852C85.1955 299.469 53.8667 299.514 12.0456 299.515C12.0881 298.289 12.1704 296.526 12.3293 294.301C12.6598 289.674 13.3219 283.049 14.6477 275.095C17.3008 259.176 22.6032 237.982 33.188 216.813C43.769 195.651 59.609 174.55 83.3316 158.735Z" fill="#60C2FF"/>
<path fill-rule="evenodd" clip-rule="evenodd" d="M355.146 301.515H357.146C357.146 301.515 357.146 300.819 357.101 299.515C356.452 280.456 346.313 131.572 187.952 130.329C187.288 130.324 186.621 130.322 185.952 130.322V132.322C185.953 216.586 186.119 258.884 207.351 280.116C228.583 301.348 270.881 301.514 355.146 301.515ZM283.814 158.735C260.478 143.177 229.398 132.657 187.952 132.329C187.953 174.169 187.997 205.51 190.615 229.072C193.276 253.024 198.562 268.498 208.766 278.702C218.969 288.905 234.443 294.191 258.395 296.852C281.95 299.469 313.279 299.514 355.1 299.515C355.057 298.289 354.975 296.526 354.816 294.301C354.486 289.674 353.824 283.049 352.498 275.095C349.845 259.176 344.542 237.982 333.957 216.813C323.377 195.651 307.536 174.55 283.814 158.735Z" fill="#60C2FF"/>
<path fill-rule="evenodd" clip-rule="evenodd" d="M357.146 110.517C357.146 76.5231 223.878 76.06 187.4 109.135C186.899 109.59 186.416 110.051 185.952 110.518C186.427 110.972 186.922 111.42 187.436 111.862C223.969 143.258 357.146 142.809 357.146 110.517ZM355.146 110.517C355.146 106.959 353.404 103.705 349.901 100.735C346.367 97.7402 341.157 95.1489 334.598 93.0362C321.495 88.8157 303.533 86.6706 284.388 86.6705C265.264 86.6703 245.096 88.8105 227.62 93.075C211.114 97.1026 197.275 102.962 188.896 110.479C197.278 117.605 211.106 123.165 227.599 126.989C245.083 131.043 265.258 133.077 284.39 133.077C303.541 133.077 321.513 131.039 334.627 127.025C341.193 125.015 346.407 122.55 349.939 119.705C353.447 116.88 355.146 113.819 355.146 110.517Z" fill="#60C2FF"/>
<path fill-rule="evenodd" clip-rule="evenodd" d="M272.608 12.217C255.606 -4.41623 188.599 60.5239 186.021 95.0387C185.97 95.7175 185.944 96.3845 185.944 97.0389C186.599 97.0389 187.266 97.0147 187.945 96.9671C223.199 94.4941 289.618 28.8573 272.608 12.217ZM271.21 13.6466C269.577 12.05 267.241 11.3277 264.074 11.5936C260.874 11.8622 257.004 13.1363 252.653 15.3298C243.966 19.7099 233.842 27.5114 224.174 36.9737C214.52 46.4225 205.418 57.4324 198.745 68.144C192.605 77.9998 188.664 87.3765 188.034 94.9551C195.816 94.3481 205.433 90.475 215.524 84.4531C226.473 77.9186 237.724 69.008 247.379 59.5588C257.048 50.0949 265.016 40.1881 269.486 31.6941C271.726 27.4394 273.02 23.6657 273.291 20.5569C273.56 17.4929 272.833 15.2351 271.21 13.6466Z" fill="#60C2FF"/>
</g>
<defs>
<filter id="filter0_dddddf_2009_37" x="0.846272" y="0.386312" width="365.453" height="310.282" filterUnits="userSpaceOnUse" color-interpolation-filters="sRGB">
<feFlood flood-opacity="0" result="BackgroundImageFix"/>
<feColorMatrix in="SourceAlpha" type="matrix" values="0 0 0 0 0 0 0 0 0 0 0 0 0 0 0 0 0 0 127 0" result="hardAlpha"/>
<feOffset/>
<feGaussianBlur stdDeviation="1.52562"/>
<feColorMatrix type="matrix" values="0 0 0 0 0.297054 0 0 0 0 1 0 0 0 0 0.493879 0 0 0 0.2 0"/>
<feBlend mode="normal" in2="BackgroundImageFix" result="effect1_dropShadow_2009_37"/>
<feColorMatrix in="SourceAlpha" type="matrix" values="0 0 0 0 0 0 0 0 0 0 0 0 0 0 0 0 0 0 127 0" result="hardAlpha"/>
<feOffset/>
<feGaussianBlur stdDeviation="1.52562"/>
<feColorMatrix type="matrix" values="0 0 0 0 1 0 0 0 0 0.971882 0 0 0 0 0.297054 0 0 0 0.2 0"/>
<feBlend mode="normal" in2="effect1_dropShadow_2009_37" result="effect2_dropShadow_2009_37"/>
<feColorMatrix in="SourceAlpha" type="matrix" values="0 0 0 0 0 0 0 0 0 0 0 0 0 0 0 0 0 0 127 0" result="hardAlpha"/>
<feOffset/>
<feGaussianBlur stdDeviation="4.57686"/>
<feColorMatrix type="matrix" values="0 0 0 0 0.197835 0 0 0 0 0.767597 0 0 0 0 1 0 0 0 1 0"/>
<feBlend mode="normal" in2="effect2_dropShadow_2009_37" result="effect3_dropShadow_2009_37"/>
<feColorMatrix in="SourceAlpha" type="matrix" values="0 0 0 0 0 0 0 0 0 0 0 0 0 0 0 0 0 0 127 0" result="hardAlpha"/>
<feOffset/>
<feGaussianBlur stdDeviation="1.52562"/>
<feColorMatrix type="matrix" values="0 0 0 0 0.485938 0 0 0 0 0.851066 0 0 0 0 1 0 0 0 1 0"/>
<feBlend mode="normal" in2="effect3_dropShadow_2009_37" result="effect4_dropShadow_2009_37"/>
<feColorMatrix in="SourceAlpha" type="matrix" values="0 0 0 0 0 0 0 0 0 0 0 0 0 0 0 0 0 0 127 0" result="hardAlpha"/>
<feOffset/>
<feGaussianBlur stdDeviation="0.305124"/>
<feColorMatrix type="matrix" values="0 0 0 0 0.661768 0 0 0 0 0.902007 0 0 0 0 1 0 0 0 1 0"/>
<feBlend mode="normal" in2="effect4_dropShadow_2009_37" result="effect5_dropShadow_2009_37"/>
<feBlend mode="normal" in="SourceGraphic" in2="effect5_dropShadow_2009_37" result="shape"/>
<feGaussianBlur stdDeviation="0.305124" result="effect6_foregroundBlur_2009_37"/>
</filter>
</defs>
</svg>
