<svg width="349" height="383" viewBox="0 0 349 383" fill="none" xmlns="http://www.w3.org/2000/svg">
<path d="M172.397 120.781C1.20361 120.781 1.20361 291.975 1.20361 291.975C172.397 291.975 172.397 291.975 172.397 120.781Z" fill="#60C2FF"/>
<path d="M177.156 120.781C348.349 120.781 348.349 291.975 348.349 291.975C177.156 291.975 177.156 291.975 177.156 120.781Z" fill="#60C2FF"/>
<path d="M172.397 100.978C138.158 66.5136 1.20361 66.5159 1.20361 100.977C1.20361 133.724 138.154 133.724 172.397 100.978Z" fill="#60C2FF"/>
<path d="M177.156 100.978C211.394 66.5136 348.349 66.5159 348.349 100.977C348.349 133.724 211.398 133.724 177.156 100.978Z" fill="#60C2FF"/>
<path d="M172.397 87.4988C172.397 53.5696 103.07 -14.2834 85.7334 2.67693C68.3962 19.6375 137.731 87.4988 172.397 87.4988Z" fill="#60C2FF"/>
<path d="M177.148 87.4988C177.148 53.5696 246.475 -14.2834 263.812 2.67693C281.149 19.6375 211.815 87.4988 177.148 87.4988Z" fill="#60C2FF"/>
<path d="M299.751 313.764C300.006 313.376 300.442 313.142 300.91 313.142H315.34C316.408 313.142 317.072 314.289 316.531 315.199L277.072 381.574C276.824 381.991 276.371 382.248 275.882 382.248H259.092C258.329 382.248 257.711 381.637 257.711 380.883V314.507C257.711 313.753 258.329 313.142 259.092 313.142H261.411C269.799 313.142 276.599 319.865 276.599 328.158V344.428C276.599 345.788 278.39 346.312 279.138 345.171L299.751 313.764Z" fill="#60C2FF"/>
<path d="M155.537 328.158C155.537 319.865 162.337 313.142 170.725 313.142H174.446C175.209 313.142 175.827 313.753 175.827 314.507V372.827C175.827 373.581 176.445 374.192 177.208 374.192H199.798C201.014 374.192 201.637 375.633 200.796 376.501L195.636 381.827C195.376 382.096 195.016 382.248 194.639 382.248H170.725C162.337 382.248 155.537 375.525 155.537 367.232V328.158Z" fill="#60C2FF"/>
<path d="M107.211 328.158C107.211 319.865 114.011 313.142 122.399 313.142H151.783C153.075 313.142 153.659 314.74 152.665 315.557L146.304 320.785C146.056 320.989 145.744 321.101 145.421 321.101H129.241C128.479 321.101 127.86 321.712 127.86 322.466V372.827C127.86 373.581 128.479 374.192 129.241 374.192H151.357C152.12 374.192 152.738 374.803 152.738 375.557V380.883C152.738 381.637 152.12 382.248 151.357 382.248H122.399C114.011 382.248 107.211 375.525 107.211 367.232V328.158Z" fill="#60C2FF"/>
<path d="M103.953 380.883C103.953 381.637 103.335 382.248 102.572 382.248H84.7392C83.9766 382.248 83.3585 381.637 83.3585 380.883V322.466C83.3585 321.712 82.7403 321.101 81.9777 321.101H73.9509C73.1884 321.101 72.5702 321.712 72.5702 322.466V380.883C72.5702 381.637 71.952 382.248 71.1894 382.248H53.3567C52.5941 382.248 51.9759 381.637 51.9759 380.883V328.158C51.9759 319.865 58.7759 313.142 67.164 313.142H88.7646C97.1528 313.142 103.953 319.865 103.953 328.158V380.883Z" fill="#60C2FF"/>
<path d="M22.6656 344.073C21.9031 344.073 21.2849 344.684 21.2849 345.438V372.827C21.2849 373.581 21.9031 374.192 22.6656 374.192H47.649C48.4115 374.192 49.0297 374.803 49.0297 375.557V380.883C49.0297 381.637 48.4115 382.248 47.649 382.248H16.0821C7.69398 382.248 0.894043 375.525 0.894043 367.232V328.158C0.894043 319.865 7.69399 313.142 16.0822 313.142H39.6034C39.8961 313.142 40.1812 313.234 40.4176 313.405L47.6605 318.633C48.7394 319.412 48.1821 321.101 46.8463 321.101H22.6656C21.9031 321.101 21.2849 321.712 21.2849 322.466V334.652C21.2849 335.406 21.9031 336.017 22.6656 336.017H40.1365C40.8991 336.017 41.5173 336.628 41.5173 337.382V342.708C41.5173 343.461 40.8991 344.073 40.1365 344.073H22.6656Z" fill="#60C2FF"/>
<path d="M326.879 344.073C327.642 344.073 328.26 344.684 328.26 345.438V372.827C328.26 373.581 327.642 374.192 326.879 374.192H301.896C301.134 374.192 300.515 374.803 300.515 375.557V380.883C300.515 381.637 301.134 382.248 301.896 382.248H347.27C348.033 382.248 348.651 381.637 348.651 380.883V328.158C348.651 319.865 341.851 313.142 333.463 313.142H324.027C323.571 313.142 323.145 313.365 322.887 313.737L319.273 318.966C318.647 319.872 319.303 321.101 320.413 321.101H326.879C327.642 321.101 328.26 321.712 328.26 322.466V334.652C328.26 335.406 327.642 336.017 326.879 336.017H311.521C311.064 336.017 310.635 336.241 310.379 336.616L306.727 341.942C306.106 342.848 306.763 344.073 307.87 344.073H326.879Z" fill="#60C2FF"/>
<path d="M237.066 313.142C245.455 313.142 252.255 319.865 252.255 328.158V380.883C252.255 381.637 251.636 382.248 250.874 382.248H233.234C232.471 382.248 231.853 381.637 231.853 380.883V352.263C231.853 351.509 231.235 350.898 230.472 350.898H225.645C224.882 350.898 224.264 351.509 224.264 352.263V380.883C224.264 381.637 223.646 382.248 222.883 382.248H205.243C204.481 382.248 203.862 381.637 203.862 380.883V314.507C203.862 313.753 204.481 313.142 205.243 313.142H237.066ZM224.264 341.477C224.264 342.231 224.882 342.842 225.645 342.842H230.472C231.235 342.842 231.853 342.231 231.853 341.477V327.979C231.853 324.18 228.738 321.101 224.896 321.101C224.547 321.101 224.264 321.381 224.264 321.726V341.477Z" fill="#60C2FF"/>
</svg>
