<svg width="446" height="88" viewBox="0 0 446 88" fill="none" xmlns="http://www.w3.org/2000/svg">
<path d="M27.8308 39.3873C26.856 39.3873 26.0658 40.1655 26.0658 41.1256V76.0033C26.0658 76.9633 26.856 77.7416 27.8308 77.7416H59.7672C60.742 77.7416 61.5322 78.5198 61.5322 79.4798V86.2617C61.5322 87.2217 60.742 88 59.7672 88H19.4151C8.69242 88 0 79.4392 0 68.879V19.121C0 8.56076 8.69244 0 19.4151 0H49.4825C49.8566 0 50.2211 0.117112 50.5233 0.334427L59.782 6.99271C61.1611 7.98449 60.4488 10.1348 58.7412 10.1348H27.8308C26.856 10.1348 26.0658 10.9131 26.0658 11.8731V27.3906C26.0658 28.3506 26.856 29.1289 27.8308 29.1289H50.164C51.1388 29.1289 51.929 29.9071 51.929 30.8671V37.649C51.929 38.609 51.1388 39.3873 50.164 39.3873H27.8308Z" fill="#60C2FF"/>
<path d="M131.541 88C132.516 88 133.306 87.2217 133.306 86.2617V19.121C133.306 8.56076 124.614 0 113.891 0H86.2791C75.5564 0 66.864 8.56076 66.864 19.121V86.2617C66.864 87.2217 67.6542 88 68.629 88H91.4248C92.3996 88 93.1898 87.2217 93.1898 86.2617V11.8731C93.1898 10.9131 93.98 10.1348 94.9548 10.1348H105.216C106.19 10.1348 106.981 10.9131 106.981 11.8731V86.2617C106.981 87.2217 107.771 88 108.746 88H131.541Z" fill="#60C2FF"/>
<path d="M140.086 19.121C140.086 8.56076 148.779 0 159.501 0H197.063C198.715 0 199.461 2.03489 198.191 3.07491L190.06 9.73319C189.743 9.99273 189.343 10.1348 188.931 10.1348H168.248C167.273 10.1348 166.483 10.9131 166.483 11.8731V76.0033C166.483 76.9633 167.273 77.7416 168.248 77.7416H196.519C197.493 77.7416 198.284 78.5198 198.284 79.4798V86.2617C198.284 87.2217 197.493 88 196.519 88H159.501C148.779 88 140.086 79.4392 140.086 68.879V19.121Z" fill="#60C2FF"/>
<path d="M221.276 0C210.554 0 201.861 8.56076 201.861 19.121V68.879C201.861 79.4392 210.554 88 221.276 88H251.846C252.328 88 252.788 87.8064 253.121 87.4641L259.716 80.6822C260.791 79.5768 259.996 77.7416 258.441 77.7416H229.564C228.589 77.7416 227.799 76.9633 227.799 76.0033V1.73827C227.799 0.778251 227.008 0 226.034 0H221.276Z" fill="#60C2FF"/>
<path fill-rule="evenodd" clip-rule="evenodd" d="M307.126 0C317.848 0 326.541 8.56076 326.541 19.121V86.2617C326.541 87.2217 325.751 88 324.776 88H302.227C301.252 88 300.462 87.2217 300.462 86.2617V49.8169C300.462 48.8569 299.671 48.0787 298.697 48.0787H292.525C291.55 48.0787 290.76 48.8569 290.76 49.8169V86.2617C290.76 87.2217 289.97 88 288.995 88H266.446C265.471 88 264.681 87.2217 264.681 86.2617V1.73827C264.681 0.778252 265.471 0 266.446 0H307.126ZM290.76 36.082C290.76 37.042 291.55 37.8202 292.525 37.8202H298.697C299.671 37.8202 300.462 37.042 300.462 36.082V18.8932C300.462 14.0561 296.48 10.1348 291.569 10.1348C291.122 10.1348 290.76 10.4913 290.76 10.931V36.082Z" fill="#60C2FF"/>
<path d="M403.005 0H384.558C383.96 0 383.403 0.298123 383.077 0.792108L356.727 40.7865C355.771 42.2387 353.482 41.5714 353.482 39.8403V19.121C353.482 8.56076 348.968 0 338.246 0H335.281C334.306 0 333.516 0.778252 333.516 1.73827V86.2617C333.516 87.2217 334.306 88 335.281 88H352.565C353.19 88 353.769 87.6738 354.086 87.1425L404.526 2.61904C405.218 1.46024 404.369 0 403.005 0Z" fill="#60C2FF"/>
<path d="M419.934 41.1256V76.0033C419.934 76.9633 419.144 77.7416 418.169 77.7416H386.233C385.258 77.7416 384.468 78.5198 384.468 79.4798V86.2617C384.468 87.2217 385.258 88 386.233 88H444.235C445.21 88 446 87.2217 446 86.2617V19.121C446 8.56076 437.308 0 426.585 0H414.523C413.94 0 413.395 0.283473 413.066 0.757463L408.446 7.41575C407.645 8.56948 408.484 10.1348 409.903 10.1348H418.169C419.144 10.1348 419.934 10.9131 419.934 11.8731V27.3906C419.934 28.3506 419.144 29.1289 418.169 29.1289H398.537C397.952 29.1289 397.404 29.4147 397.076 29.8919L392.408 36.6737C391.614 37.828 392.454 39.3873 393.87 39.3873H418.169C419.144 39.3873 419.934 40.1655 419.934 41.1256Z" fill="#60C2FF"/>
</svg>
