<?xml version="1.0" standalone="no"?>
<!DOCTYPE svg PUBLIC "-//W3C//DTD SVG 20010904//EN"
 "http://www.w3.org/TR/2001/REC-SVG-20010904/DTD/svg10.dtd">
<svg version="1.0" xmlns="http://www.w3.org/2000/svg"
 width="500.000000pt" height="500.000000pt" viewBox="0 0 500.000000 500.000000"
 preserveAspectRatio="xMidYMid meet">
<metadata>
Created by potrace 1.14, written by Peter Selinger 2001-2017
</metadata>
<g transform="translate(0.000000,500.000000) scale(0.100000,-0.100000)"
fill="#000000" stroke="none">
<path d="M1631 4054 c-26 -22 -31 -33 -31 -72 0 -101 95 -246 273 -418 206
-199 450 -344 579 -344 26 0 27 2 22 33 -11 64 -55 174 -102 249 -174 285
-515 577 -674 578 -25 0 -46 -8 -67 -26z"/>
<path d="M3209 4057 c-94 -39 -199 -117 -325 -242 -209 -207 -329 -395 -358
-562 -5 -31 -4 -33 22 -33 124 0 368 142 560 324 189 180 292 335 292 437 0
40 -4 51 -31 73 -39 33 -85 34 -160 3z"/>
<path d="M1345 3333 c-237 -18 -423 -71 -498 -142 -114 -105 -52 -221 153
-285 286 -90 806 -82 1155 19 95 27 253 100 295 136 l25 21 -40 35 c-53 46
-179 106 -290 138 -225 65 -559 97 -800 78z"/>
<path d="M3270 3330 c-284 -27 -544 -100 -671 -188 -70 -47 -76 -58 -48 -82
13 -11 65 -40 114 -65 433 -215 1388 -198 1525 27 77 126 -81 248 -380 294
-118 18 -413 26 -540 14z"/>
<path d="M2265 2879 c-304 -29 -583 -127 -797 -279 -116 -83 -278 -252 -360
-375 -121 -181 -219 -417 -267 -637 -21 -99 -51 -308 -51 -360 l0 -31 403 6
c523 8 700 26 869 87 150 55 232 128 298 265 73 154 97 313 110 750 5 171 10
372 10 448 l0 137 -62 -1 c-35 -1 -103 -6 -153 -10z"/>
<path d="M2520 2753 c1 -275 20 -761 34 -870 8 -62 22 -143 32 -180 22 -90 82
-218 128 -270 79 -91 215 -155 396 -187 154 -28 290 -36 699 -43 l404 -6 -8
89 c-26 329 -145 687 -312 939 -83 123 -245 292 -361 375 -166 118 -385 209
-599 250 -109 20 -292 40 -370 40 l-43 0 0 -137z"/>
</g>
</svg>
