<svg width="20" height="20" viewBox="0 0 20 20" fill="none" xmlns="http://www.w3.org/2000/svg">
<g clip-path="url(#clip0_385_4975)">
<path d="M7.68279 11.0672C7.74084 11.1253 7.80977 11.1714 7.88564 11.2029C7.96151 11.2343 8.04284 11.2505 8.12498 11.2505C8.20711 11.2505 8.28844 11.2343 8.36432 11.2029C8.44019 11.1714 8.50912 11.1253 8.56717 11.0672L15.8078 3.93282C15.8658 3.87471 15.9348 3.82861 16.0106 3.79715C16.0865 3.7657 16.1678 3.74951 16.25 3.74951C16.3321 3.74951 16.4134 3.7657 16.4893 3.79715C16.5652 3.82861 16.6341 3.87471 16.6922 3.93282L18.5672 5.77657C18.6253 5.83461 18.6714 5.90354 18.7028 5.97942C18.7343 6.05529 18.7505 6.13662 18.7505 6.21875C18.7505 6.30089 18.7343 6.38222 18.7028 6.45809C18.6714 6.53396 18.6253 6.6029 18.5672 6.66094L8.53592 16.6922C8.47787 16.7503 8.40894 16.7964 8.33307 16.8279C8.25719 16.8593 8.17586 16.8755 8.09373 16.8755C8.01159 16.8755 7.93026 16.8593 7.85439 16.8279C7.77852 16.7964 7.70959 16.7503 7.65154 16.6922L2.05779 11.0672C1.94067 10.95 1.87488 10.7911 1.87488 10.6254C1.87488 10.4597 1.94067 10.3008 2.05779 10.1836L3.93279 8.3086C3.99084 8.25049 4.05977 8.20439 4.13564 8.17294C4.21151 8.14148 4.29284 8.12529 4.37498 8.12529C4.45711 8.12529 4.53844 8.14148 4.61432 8.17294C4.69019 8.20439 4.75912 8.25049 4.81717 8.3086L7.68279 11.0672Z" stroke="#4B5665" stroke-width="1.5" stroke-linecap="round" stroke-linejoin="round"/>
</g>
<defs>
<clipPath id="clip0_385_4975">
<rect width="20" height="20" fill="white"/>
</clipPath>
</defs>
</svg>
