<svg width="20" height="21" viewBox="0 0 20 21" fill="none" xmlns="http://www.w3.org/2000/svg">
<g clip-path="url(#clip0_385_4689)">
<path d="M13.7502 10.98C13.7531 13.4238 13.2769 15.8444 12.3486 18.105" stroke="white" stroke-width="1.5" stroke-linecap="round" stroke-linejoin="round"/>
<path d="M12.7953 8.47999C12.289 7.91383 11.6227 7.51476 10.8847 7.33558C10.1466 7.1564 9.37148 7.20557 8.66196 7.47658C7.95243 7.74758 7.34192 8.22765 6.91123 8.85324C6.48053 9.47884 6.24995 10.2205 6.25 10.98C6.25224 12.8859 5.76823 14.7609 4.84375 16.4276" stroke="white" stroke-width="1.5" stroke-linecap="round" stroke-linejoin="round"/>
<path d="M7.5 3.90665C8.63143 3.50794 9.84194 3.38625 11.0301 3.55177C12.2182 3.71728 13.3494 4.16519 14.3288 4.85795C15.3082 5.5507 16.1072 6.46813 16.659 7.53333C17.2107 8.59853 17.4991 9.78047 17.5 10.9801C17.501 12.6623 17.3139 14.3394 16.9422 15.9801" stroke="white" stroke-width="1.5" stroke-linecap="round" stroke-linejoin="round"/>
<path d="M1.82031 14.105C2.26971 13.1246 2.50158 12.0585 2.5 10.98C2.49896 9.92464 2.72117 8.88101 3.15203 7.91762C3.5829 6.95424 4.21267 6.09289 5 5.39014" stroke="white" stroke-width="1.5" stroke-linecap="round" stroke-linejoin="round"/>
<path d="M8.63897 17.23C8.48272 17.5753 8.31188 17.9138 8.12646 18.2456" stroke="white" stroke-width="1.5" stroke-linecap="round" stroke-linejoin="round"/>
<path d="M10 10.98C10.0018 12.2447 9.84434 13.5046 9.53125 14.73" stroke="white" stroke-width="1.5" stroke-linecap="round" stroke-linejoin="round"/>
</g>
<defs>
<clipPath id="clip0_385_4689">
<rect width="20" height="20" fill="white" transform="translate(0 0.97998)"/>
</clipPath>
</defs>
</svg>
