<svg width="24" height="24" viewBox="0 0 24 24" fill="none" xmlns="http://www.w3.org/2000/svg">
<path d="M12 8.01086e-05C18.6274 8.01086e-05 24 5.36816 24 11.99C24 18.6119 18.6274 23.98 12 23.98C5.37258 23.98 0 18.6119 0 11.99C0 5.36816 5.37258 8.01086e-05 12 8.01086e-05Z" fill="black"/>
<path d="M12.0001 22.2803C17.6804 22.2803 22.2852 17.6793 22.2852 12.0037C22.2852 6.32817 17.6804 1.72723 12.0001 1.72723C6.31979 1.72723 1.71497 6.32817 1.71497 12.0037C1.71497 17.6793 6.31979 22.2803 12.0001 22.2803Z" fill="black"/>
<path d="M12.0001 22.2803C17.6804 22.2803 22.2852 17.6793 22.2852 12.0037C22.2852 6.32817 17.6804 1.72723 12.0001 1.72723C6.31979 1.72723 1.71497 6.32817 1.71497 12.0037C1.71497 17.6793 6.31979 22.2803 12.0001 22.2803Z" stroke="white" stroke-width="0.0881105"/>
<path d="M12.4238 6.68823C12.4238 6.68823 12.0142 6.57566 12.0142 6.16387C12.0142 6.57566 11.6045 6.68823 11.6045 6.68823H12.4238Z" fill="white"/>
<path d="M18.4278 8.63916C18.4278 8.63916 18.2639 8.08329 18.7408 7.78695C18.2631 8.08369 17.837 7.69034 17.837 7.69034L18.4278 8.63916Z" fill="white"/>
<path d="M15.343 18.3735C15.343 18.3735 15.8994 18.2098 16.1964 18.6863C15.8994 18.209 16.2931 17.7837 16.2931 17.7837L15.343 18.3735Z" fill="white"/>
<path d="M5.60033 15.2915C5.60033 15.2915 5.76421 15.8474 5.28735 16.1441C5.76502 15.8474 6.18862 16.2407 6.18862 16.2407L5.60033 15.2915Z" fill="white"/>
<path d="M21.1278 12.6721C21.1278 12.6721 21.3224 11.9652 22.0341 11.9652C21.3224 11.9652 21.1278 11.2583 21.1278 11.2583V12.6721Z" fill="white"/>
<path d="M2.9002 11.2583C2.9002 11.2583 2.70562 11.9652 1.99402 11.9652C2.70562 11.9652 2.9002 12.6721 2.9002 12.6721V11.2583Z" fill="white"/>
<path d="M5.60033 8.63916C5.60033 8.63916 5.76421 8.08329 5.28735 7.78695C5.76502 8.08369 6.18862 7.69034 6.18862 7.69034L5.60033 8.63916Z" fill="white"/>
<path d="M8.68488 18.3735C8.68488 18.3735 8.12856 18.2098 7.83155 18.6863C8.12856 18.209 7.73486 17.7837 7.73486 17.7837L8.68488 18.3735Z" fill="white"/>
<path d="M18.4278 15.2915C18.4278 15.2915 18.2639 15.8474 18.7408 16.1441C18.2631 15.8474 17.837 16.2407 17.837 16.2407L18.4278 15.2915Z" fill="white"/>
<path d="M12.0142 19.1604C13.8215 19.1589 15.5619 18.4766 16.8882 17.2498C18.2145 16.023 19.0291 14.3417 19.1698 12.5413C19.3104 10.741 18.7666 8.95376 17.6469 7.53621C16.5272 6.11866 14.9138 5.17493 13.1286 4.89322C11.3433 4.61154 9.5174 5.01257 8.01498 6.01638C6.51255 7.02018 5.44404 8.55297 5.02255 10.309C4.60105 12.0651 4.85758 13.9154 5.74091 15.4909C6.62425 17.0663 8.06952 18.2512 9.78846 18.8092C10.5073 19.0423 11.2584 19.1608 12.0142 19.1604Z" stroke="white" stroke-width="0.0881105" stroke-miterlimit="10"/>
<path d="M12.014 17.2422C13.3387 17.2408 14.6141 16.7405 15.586 15.8412C16.5578 14.942 17.1547 13.7097 17.2576 12.3901C17.3605 11.0706 16.9618 9.76082 16.1411 8.72198C15.3203 7.68313 14.1378 6.99157 12.8294 6.78523C11.5209 6.57888 10.1827 6.87289 9.08163 7.60863C7.98053 8.34437 7.19746 9.4678 6.88857 10.7548C6.57968 12.0419 6.76769 13.3979 7.41508 14.5526C8.06248 15.7073 9.1217 16.5757 10.3815 16.9847C10.9087 17.1558 11.4597 17.2427 12.014 17.2422Z" stroke="black" stroke-width="0.0220153" stroke-miterlimit="10"/>
<path d="M12.0194 8.96158L12.2476 6.15853L12.255 8.97059L12.7027 6.19414L12.4897 8.99842L13.1538 6.26577L12.7212 9.04467L13.5983 6.37219L12.9485 9.10854L14.0325 6.51341L13.1697 9.1904L14.4545 6.68777L13.384 9.28904L14.8613 6.8949L13.5901 9.40406L15.2509 7.13353L13.7863 9.53545L15.6204 7.40164L13.9719 9.68118L15.9674 7.698L14.1452 9.84163L16.2906 8.02055L14.3054 10.0148L16.5872 8.36765L14.4516 10.1998L16.8555 8.73687L14.5827 10.3958L17.094 9.12614L14.6982 10.6017L17.3013 9.5326L14.7969 10.8162L17.4762 9.9542L14.8789 11.0373L17.6175 10.3881L14.9428 11.2645L17.724 10.8318L14.9887 11.4957L17.7953 11.2824L15.0165 11.7299L17.8314 11.7376L15.026 11.9656L17.8314 12.194L15.0165 12.2014L17.7953 12.6488L14.9887 12.4355L17.724 13.0994L14.9428 12.6668L17.6175 13.5431L14.8789 12.894L17.4762 13.977L14.7969 13.1154L17.3013 14.3986L14.6982 13.3295L17.094 14.8055L14.5827 13.5354L16.8555 15.1944L14.4516 13.7314L16.5872 15.5636L14.3054 13.9169L16.2906 15.9107L14.1452 14.09L15.9674 16.2333L13.9719 14.2501L15.6204 16.5296L13.7863 14.3962L15.2509 16.7977L13.5901 14.5272L14.8613 17.0363L13.384 14.6422L14.4545 17.2435L13.1697 14.7413L14.0325 17.4182L12.9485 14.8227L13.5983 17.559L12.7212 14.887L13.1538 17.6655L12.4897 14.9328L12.7027 17.7371L12.255 14.9606L12.2476 17.7727L12.0194 14.9697L11.7908 17.7727L11.7834 14.9606L11.3357 17.7371L11.5487 14.9328L10.8846 17.6655L11.3172 14.887L10.4405 17.559L11.0903 14.8227L10.0059 17.4182L10.8687 14.7413L9.58393 17.2435L10.6544 14.6422L9.17712 17.0363L10.4483 14.5272L8.78793 16.7977L10.2521 14.3962L8.418 16.5296L10.0665 14.2501L8.07101 16.2333L9.89322 14.09L7.7482 15.9107L9.73304 13.9169L7.45161 15.5636L9.5868 13.7314L7.18287 15.1944L9.4557 13.5354L6.94444 14.8055L9.34018 13.3295L6.73714 14.3986L9.24145 13.1154L6.56221 13.977L9.15951 12.894L6.42089 13.5431L9.0956 12.6668L6.31436 13.0994L9.04973 12.4355L6.24308 12.6488L9.02185 12.2014L6.20703 12.194L9.01244 11.9656L6.20703 11.7376L9.02185 11.7299L6.24308 11.2824L9.04973 11.4957L6.31436 10.8318L9.0956 11.2645L6.42089 10.3881L9.15951 11.0373L6.56221 9.9542L9.24145 10.8162L6.73714 9.5326L9.34018 10.6017L6.94444 9.12614L9.4557 10.3958L7.18287 8.73687L9.5868 10.1998L7.45161 8.36765L9.73304 10.0148L7.7482 8.02055L9.89322 9.84163L8.07101 7.698L10.0665 9.68118L8.418 7.40164L10.2521 9.53545L8.78793 7.13353L10.4483 9.40406L9.17712 6.8949L10.6544 9.28904L9.58393 6.68777L10.8687 9.1904L10.0059 6.51341L11.0903 9.10854L10.4405 6.37219L11.3172 9.04467L10.8846 6.26577L11.5487 8.99842L11.3357 6.19414L11.7834 8.97059L11.7908 6.15853L12.0194 8.96158Z" fill="black"/>
<path d="M12.0194 8.96158L12.2476 6.15853L12.255 8.97059L12.7027 6.19414L12.4897 8.99842L13.1538 6.26577L12.7212 9.04467L13.5983 6.37219L12.9485 9.10854L14.0325 6.51341L13.1697 9.1904L14.4545 6.68777L13.384 9.28904L14.8613 6.8949L13.5901 9.40406L15.2509 7.13353L13.7863 9.53545L15.6204 7.40164L13.9719 9.68118L15.9674 7.698L14.1452 9.84163L16.2906 8.02055L14.3054 10.0148L16.5872 8.36765L14.4516 10.1998L16.8555 8.73687L14.5827 10.3958L17.094 9.12614L14.6982 10.6017L17.3013 9.5326L14.7969 10.8162L17.4762 9.9542L14.8789 11.0373L17.6175 10.3881L14.9428 11.2645L17.724 10.8318L14.9887 11.4957L17.7953 11.2824L15.0165 11.7299L17.8314 11.7376L15.026 11.9656L17.8314 12.194L15.0165 12.2014L17.7953 12.6488L14.9887 12.4355L17.724 13.0994L14.9428 12.6668L17.6175 13.5431L14.8789 12.894L17.4762 13.977L14.7969 13.1154L17.3013 14.3986L14.6982 13.3295L17.094 14.8055L14.5827 13.5354L16.8555 15.1944L14.4516 13.7314L16.5872 15.5636L14.3054 13.9169L16.2906 15.9107L14.1452 14.09L15.9674 16.2333L13.9719 14.2501L15.6204 16.5296L13.7863 14.3962L15.2509 16.7977L13.5901 14.5272L14.8613 17.0363L13.384 14.6422L14.4545 17.2435L13.1697 14.7413L14.0325 17.4182L12.9485 14.8227L13.5983 17.559L12.7212 14.887L13.1538 17.6655L12.4897 14.9328L12.7027 17.7371L12.255 14.9606L12.2476 17.7727L12.0194 14.9697L11.7908 17.7727L11.7834 14.9606L11.3357 17.7371L11.5487 14.9328L10.8846 17.6655L11.3172 14.887L10.4405 17.559L11.0903 14.8227L10.0059 17.4182L10.8687 14.7413L9.58393 17.2435L10.6544 14.6422L9.17712 17.0363L10.4483 14.5272L8.78793 16.7977L10.2521 14.3962L8.418 16.5296L10.0665 14.2501L8.07101 16.2333L9.89322 14.09L7.7482 15.9107L9.73304 13.9169L7.45161 15.5636L9.5868 13.7314L7.18287 15.1944L9.4557 13.5354L6.94444 14.8055L9.34018 13.3295L6.73714 14.3986L9.24145 13.1154L6.56221 13.977L9.15951 12.894L6.42089 13.5431L9.0956 12.6668L6.31436 13.0994L9.04973 12.4355L6.24308 12.6488L9.02185 12.2014L6.20703 12.194L9.01244 11.9656L6.20703 11.7376L9.02185 11.7299L6.24308 11.2824L9.04973 11.4957L6.31436 10.8318L9.0956 11.2645L6.42089 10.3881L9.15951 11.0373L6.56221 9.9542L9.24145 10.8162L6.73714 9.5326L9.34018 10.6017L6.94444 9.12614L9.4557 10.3958L7.18287 8.73687L9.5868 10.1998L7.45161 8.36765L9.73304 10.0148L7.7482 8.02055L9.89322 9.84163L8.07101 7.698L10.0665 9.68118L8.418 7.40164L10.2521 9.53545L8.78793 7.13353L10.4483 9.40406L9.17712 6.8949L10.6544 9.28904L9.58393 6.68777L10.8687 9.1904L10.0059 6.51341L11.0903 9.10854L10.4405 6.37219L11.3172 9.04467L10.8846 6.26577L11.5487 8.99842L11.3357 6.19414L11.7834 8.97059L11.7908 6.15853L12.0194 8.96158Z" stroke="white" stroke-width="0.0881105"/>
<path d="M21.044 11.9625C19.5203 11.8753 19.4011 9.56792 19.4011 9.56792L18.4048 9.89087C18.846 11.6129 16.6514 11.9285 16.3646 11.9621H16.3335H16.3482H16.3335H16.3646C16.6514 11.9956 18.846 12.3112 18.4048 14.0332L19.3999 14.3562C19.3999 14.3562 19.5191 12.0488 21.0426 11.9616H21.0246L21.044 11.9625Z" fill="white"/>
<path d="M2.9834 11.9653C2.98569 11.9655 2.98799 11.9656 2.99028 11.9657C4.50732 11.872 4.62576 9.57158 4.62576 9.57158L5.62085 9.89455C5.18004 11.6166 7.37463 11.9322 7.6614 11.9657C7.37463 11.9993 5.18004 12.3149 5.62085 14.0369L4.62576 14.3599C4.62576 14.3599 4.50732 12.0594 2.99028 11.9657C2.98799 11.9659 2.98569 11.966 2.9834 11.9661V11.9653Z" fill="white"/>
<path d="M6.91821 17.0503C8.47496 15.4949 9.82936 16.2378 9.82936 16.2378C8.86992 15.2791 11.2427 12.7409 11.865 12.1077C11.2312 12.7295 8.69081 15.1003 7.73135 14.1416C7.73135 14.1416 8.47413 15.4961 6.91821 17.0503Z" fill="white"/>
<path d="M17.0986 17.0479C15.5427 15.4936 16.2854 14.1392 16.2854 14.1392C15.3259 15.0978 12.7856 12.727 12.1519 12.1053C12.7741 12.7368 15.147 15.2751 14.1875 16.2354C14.1875 16.2354 15.5427 15.4932 17.0986 17.0479Z" fill="white"/>
<path d="M12.155 11.8179C12.7884 11.1961 15.3112 8.80767 16.2706 9.76797C16.2706 9.76797 15.5278 8.4135 17.0837 6.85888C15.5278 8.4135 14.1722 7.6714 14.1722 7.6714C15.132 8.63003 12.7773 11.185 12.155 11.8179Z" fill="white"/>
<path d="M11.8647 11.8191C11.2424 11.1859 8.86968 8.64768 9.82909 7.68903C9.82909 7.68903 8.47349 8.43111 6.91797 6.87649C8.47389 8.43111 7.73113 9.78514 7.73113 9.78514C8.69056 8.82649 11.231 11.1973 11.8647 11.8191Z" fill="white"/>
<path d="M16.5189 18.229C16.5051 18.2348 16.4882 18.242 16.4686 18.2505C16.4097 18.2763 16.3262 18.3146 16.2273 18.3653C16.0295 18.4665 15.7694 18.6172 15.5212 18.8146C15.0807 19.1649 14.6694 19.6698 14.7254 20.3115C14.3935 19.7588 13.7639 19.5914 13.2015 19.5665C12.8847 19.5524 12.5857 19.5832 12.3663 19.6174C12.2564 19.6345 12.1663 19.6525 12.1036 19.6663C12.0846 19.6704 12.0348 19.6742 12.015 19.6775C12.0123 19.6779 12.01 19.6758 12.01 19.6731V18.7125C12.444 18.6781 12.792 18.5195 13.0068 18.2931C13.2263 18.0617 13.346 17.7624 13.4071 17.4607C13.495 17.0265 13.4626 16.5819 13.4271 16.3141C13.5557 16.5517 13.7909 16.9306 14.1174 17.2305C14.3441 17.4388 14.6169 17.6108 14.9306 17.6693C15.2374 17.7264 15.5797 17.6742 15.9511 17.4473L16.5189 18.229Z" fill="black"/>
<path d="M16.5189 18.229C16.5051 18.2348 16.4882 18.242 16.4686 18.2505C16.4097 18.2763 16.3262 18.3146 16.2273 18.3653C16.0295 18.4665 15.7694 18.6172 15.5212 18.8146C15.0807 19.1649 14.6694 19.6698 14.7254 20.3115C14.3935 19.7588 13.7639 19.5914 13.2015 19.5665C12.8847 19.5524 12.5857 19.5832 12.3663 19.6174C12.2564 19.6345 12.1663 19.6525 12.1036 19.6663C12.0846 19.6704 12.0348 19.6742 12.015 19.6775C12.0123 19.6779 12.01 19.6758 12.01 19.6731V18.7125C12.444 18.6781 12.792 18.5195 13.0068 18.2931C13.2263 18.0617 13.346 17.7624 13.4071 17.4607C13.495 17.0265 13.4626 16.5819 13.4271 16.3141C13.5557 16.5517 13.7909 16.9306 14.1174 17.2305C14.3441 17.4388 14.6169 17.6108 14.9306 17.6693C15.2374 17.7264 15.5797 17.6742 15.9511 17.4473L16.5189 18.229Z" stroke="white" stroke-width="0.0881105"/>
<path d="M8.50563 5.11317C8.94632 4.76263 9.35779 4.25743 9.3015 3.61524C9.63327 4.16879 10.2632 4.3363 10.8259 4.36126C11.1427 4.37531 11.4417 4.34453 11.6612 4.31032C11.771 4.29319 11.8611 4.27519 11.9238 4.26146C11.9447 4.25687 11.9626 4.25277 11.9772 4.24933V5.21486C11.5431 5.24932 11.2354 5.40802 11.0206 5.63443C10.801 5.86588 10.6813 6.16526 10.6202 6.4669C10.5322 6.90107 10.5645 7.34549 10.6002 7.61328C10.4715 7.37559 10.2364 6.99684 9.91002 6.69708C9.68326 6.48881 9.41042 6.3168 9.09666 6.25839C8.78976 6.20126 8.4474 6.25352 8.07586 6.48049L7.50806 5.69872C7.52188 5.69295 7.53877 5.68577 7.55837 5.6772C7.61724 5.65146 7.70074 5.61309 7.79968 5.56244C7.99741 5.46121 8.25746 5.31058 8.50563 5.11317Z" fill="black"/>
<path d="M8.50563 5.11317C8.94632 4.76263 9.35779 4.25743 9.3015 3.61524C9.63327 4.16879 10.2632 4.3363 10.8259 4.36126C11.1427 4.37531 11.4417 4.34453 11.6612 4.31032C11.771 4.29319 11.8611 4.27519 11.9238 4.26146C11.9447 4.25687 11.9626 4.25277 11.9772 4.24933V5.21486C11.5431 5.24932 11.2354 5.40802 11.0206 5.63443C10.801 5.86588 10.6813 6.16526 10.6202 6.4669C10.5322 6.90107 10.5645 7.34549 10.6002 7.61328C10.4715 7.37559 10.2364 6.99684 9.91002 6.69708C9.68326 6.48881 9.41042 6.3168 9.09666 6.25839C8.78976 6.20126 8.4474 6.25352 8.07586 6.48049L7.50806 5.69872C7.52188 5.69295 7.53877 5.68577 7.55837 5.6772C7.61724 5.65146 7.70074 5.61309 7.79968 5.56244C7.99741 5.46121 8.25746 5.31058 8.50563 5.11317Z" stroke="white" stroke-width="0.0881105"/>
<path d="M7.55225 18.2477C7.53264 18.2391 7.51576 18.2319 7.50195 18.2262L8.0697 17.4452C8.44104 17.6728 8.78336 17.7255 9.09029 17.6686C9.4041 17.6105 9.67708 17.4386 9.90398 17.2304C10.2305 16.9307 10.4659 16.552 10.5947 16.3142C10.5589 16.5819 10.5263 17.026 10.6139 17.4599C10.6747 17.7615 10.7942 18.0609 11.0135 18.2925C11.2281 18.519 11.5785 18.6778 12.0126 18.7124V19.6673C12.0126 19.6736 12.0072 19.6785 12.0009 19.6777C11.9777 19.6746 11.9338 19.6712 11.9166 19.6674C11.8539 19.6536 11.7639 19.6354 11.6541 19.6182C11.4348 19.5837 11.1361 19.5525 10.8194 19.5662C10.2566 19.5905 9.62626 19.7574 9.29391 20.3115C9.3509 19.6686 8.93973 19.1629 8.49916 18.8121C8.25111 18.6145 7.99117 18.4638 7.79349 18.3625C7.69458 18.3118 7.61109 18.2734 7.55225 18.2477Z" fill="black"/>
<path d="M7.55225 18.2477C7.53264 18.2391 7.51576 18.2319 7.50195 18.2262L8.0697 17.4452C8.44104 17.6728 8.78336 17.7255 9.09029 17.6686C9.4041 17.6105 9.67708 17.4386 9.90398 17.2304C10.2305 16.9307 10.4659 16.552 10.5947 16.3142C10.5589 16.5819 10.5263 17.026 10.6139 17.4599C10.6747 17.7615 10.7942 18.0609 11.0135 18.2925C11.2281 18.519 11.5785 18.6778 12.0126 18.7124V19.6673C12.0126 19.6736 12.0072 19.6785 12.0009 19.6777C11.9777 19.6746 11.9338 19.6712 11.9166 19.6674C11.8539 19.6536 11.7639 19.6354 11.6541 19.6182C11.4348 19.5837 11.1361 19.5525 10.8194 19.5662C10.2566 19.5905 9.62626 19.7574 9.29391 20.3115C9.3509 19.6686 8.93973 19.1629 8.49916 18.8121C8.25111 18.6145 7.99117 18.4638 7.79349 18.3625C7.69458 18.3118 7.61109 18.2734 7.55225 18.2477Z" stroke="white" stroke-width="0.0881105"/>
<path d="M14.1232 6.69597C13.7963 6.99589 13.5608 7.37509 13.4321 7.61279C13.468 7.34518 13.5008 6.90068 13.4131 6.46639C13.3523 6.16477 13.2328 5.86539 13.0135 5.63384C12.7989 5.40737 12.4913 5.24853 12.0574 5.21389V4.24798C12.0719 4.25144 12.0897 4.25556 12.1106 4.26016C12.1733 4.27398 12.2633 4.2921 12.373 4.30935C12.5924 4.34384 12.8911 4.37501 13.2078 4.36133C13.7708 4.33704 14.4014 4.16999 14.7336 3.61553C14.677 4.25807 15.0879 4.76353 15.5282 5.11425C15.7762 5.3118 16.0361 5.46251 16.2338 5.5638C16.3327 5.6145 16.4161 5.65288 16.4749 5.67862C16.4946 5.68721 16.5114 5.69439 16.5252 5.70014L15.9575 6.48109C15.5862 6.25353 15.2438 6.20085 14.9369 6.25772C14.6231 6.31585 14.3501 6.48776 14.1232 6.69597Z" fill="black"/>
<path d="M14.1232 6.69597C13.7963 6.99589 13.5608 7.37509 13.4321 7.61279C13.468 7.34518 13.5008 6.90068 13.4131 6.46639C13.3523 6.16477 13.2328 5.86539 13.0135 5.63384C12.7989 5.40737 12.4913 5.24853 12.0574 5.21389V4.24798C12.0719 4.25144 12.0897 4.25556 12.1106 4.26016C12.1733 4.27398 12.2633 4.2921 12.373 4.30935C12.5924 4.34384 12.8911 4.375 13.2078 4.36133C13.7708 4.33704 14.4014 4.16999 14.7336 3.61553C14.677 4.25807 15.0879 4.76353 15.5282 5.11425C15.7762 5.3118 16.0361 5.46251 16.2338 5.5638C16.3327 5.61449 16.4161 5.65288 16.4749 5.67862C16.4946 5.68721 16.5114 5.69439 16.5252 5.70014L15.9575 6.48109C15.5862 6.25353 15.2438 6.20085 14.9369 6.25772C14.6231 6.31585 14.3501 6.48776 14.1232 6.69597Z" stroke="white" stroke-width="0.0881105"/>
<path d="M12.014 21.1162C13.4592 21.1158 14.8839 20.7738 16.1715 20.1182C17.4591 19.4624 18.5732 18.5116 19.4228 17.3435C20.2724 16.1753 20.8333 14.8229 21.0597 13.3967C21.2861 11.9706 21.1716 10.5111 20.7256 9.1376C20.2796 7.76338 19.5144 6.51424 18.4923 5.49243C17.4703 4.47063 16.2205 3.70523 14.8454 3.25892C13.4703 2.8126 12.009 2.69808 10.5811 2.92469C9.15312 3.15131 7.79923 3.71263 6.63022 4.56271C5.0645 5.69804 3.89892 7.29969 3.30065 9.1379C2.70239 10.9761 2.70219 12.9564 3.30008 14.7948C3.89798 16.6331 5.06324 18.235 6.62871 19.3706C8.19419 20.5063 10.0795 21.1174 12.014 21.1162Z" stroke="white" stroke-width="0.0881105" stroke-miterlimit="10"/>
<path d="M14.9814 21.0903C14.9814 21.0903 16.1285 20.7861 17.6569 19.7264C17.6569 19.7264 15.1961 16.8403 14.6438 17.0879C14.0916 17.3356 14.9814 21.0903 14.9814 21.0903Z" fill="white"/>
<path d="M14.3901 4.66565C12.055 3.8433 12.016 1.89288 12.016 1.89288C12.016 1.89288 11.9788 3.8433 9.64203 4.66565C9.64203 4.66565 8.43228 5.03895 7.5011 5.7569L7.78336 6.14577C7.78336 6.14577 8.25038 5.66317 9.79074 5.12245C9.79074 5.12245 12.0156 4.18509 12.0156 10.0479C12.014 4.18429 14.2389 5.12367 14.2389 5.12367C15.7797 5.66523 16.2463 6.14699 16.2463 6.14699L16.5285 5.75813C15.5978 5.03896 14.3901 4.66565 14.3901 4.66565Z" fill="white"/>
<path d="M12.0141 15.8022C12.5442 15.8022 12.9739 15.3729 12.9739 14.8432C12.9739 14.3135 12.5442 13.8841 12.0141 13.8841C11.4839 13.8841 11.0542 14.3135 11.0542 14.8432C11.0542 15.3729 11.4839 15.8022 12.0141 15.8022Z" fill="white"/>
<path d="M12.0139 21.5549C12.0139 21.5549 13.1995 21.6261 14.9824 21.0976C14.9824 21.0976 13.551 17.5869 12.9488 17.6487C12.3466 17.7105 12.0139 21.5549 12.0139 21.5549Z" fill="white"/>
<path d="M9.04565 21.0903C9.04565 21.0903 7.89858 20.7861 6.37012 19.7264C6.37012 19.7264 8.83099 16.8403 9.38322 17.0879C9.93545 17.3356 9.04565 21.0903 9.04565 21.0903Z" fill="white"/>
<path d="M12.014 21.5549C12.014 21.5549 10.828 21.6261 9.04517 21.0976C9.04517 21.0976 10.479 17.5869 11.0792 17.6487C11.6793 17.7105 12.014 21.5549 12.014 21.5549Z" fill="white"/>
<path d="M20.1564 7.78101C20.1468 7.76118 20.1329 7.73345 20.1147 7.69948C20.0765 7.62804 20.0192 7.52888 19.9426 7.4177C19.7896 7.19566 19.5584 6.92393 19.2472 6.72967C18.9353 6.53496 18.543 6.41827 18.0706 6.50743C17.7181 6.57395 17.3232 6.75467 16.8853 7.09954C17.2303 6.66225 17.4112 6.26783 17.4777 5.91571C17.567 5.44377 17.4503 5.05177 17.2555 4.74C17.0611 4.42898 16.7893 4.19791 16.5671 4.04494C16.4559 3.96833 16.3567 3.91102 16.2852 3.87279C16.2512 3.85463 16.2235 3.84077 16.2036 3.8312L16.6052 3.04342C17.3587 3.41787 17.982 3.86999 18.4193 4.23091C18.6409 4.41388 18.8147 4.5733 18.9332 4.68712C18.9925 4.74402 19.038 4.78955 19.0688 4.8209C19.0841 4.83657 19.0959 4.84871 19.1038 4.857C19.1067 4.85999 19.109 4.86247 19.1109 4.86446C19.1117 4.86522 19.1123 4.8659 19.1129 4.86653C19.114 4.86761 19.1149 4.86854 19.1155 4.86922C19.1158 4.86954 19.1162 4.86995 19.1165 4.87029C19.1167 4.87047 19.117 4.87075 19.1174 4.87109L19.1174 4.87113C19.8591 5.60253 20.4762 6.44992 20.9445 7.37983L20.1564 7.78101Z" fill="black"/>
<path d="M20.1564 7.78101C20.1468 7.76118 20.1329 7.73345 20.1147 7.69948C20.0765 7.62804 20.0192 7.52888 19.9426 7.4177C19.7896 7.19566 19.5584 6.92393 19.2472 6.72967C18.9353 6.53496 18.543 6.41827 18.0706 6.50743C17.7181 6.57395 17.3232 6.75467 16.8853 7.09954C17.2303 6.66225 17.4112 6.26783 17.4777 5.91571C17.567 5.44377 17.4503 5.05177 17.2555 4.74C17.0611 4.42898 16.7893 4.19791 16.5671 4.04494C16.4559 3.96833 16.3567 3.91102 16.2852 3.87279C16.2512 3.85463 16.2235 3.84077 16.2036 3.8312L16.6052 3.04342C17.3587 3.41787 17.982 3.86999 18.4193 4.23091C18.6409 4.41388 18.8147 4.5733 18.9332 4.68712C18.9925 4.74402 19.038 4.78955 19.0688 4.8209C19.0841 4.83657 19.0959 4.84871 19.1038 4.857C19.1067 4.85999 19.109 4.86247 19.1109 4.86446C19.1117 4.86522 19.1123 4.8659 19.1129 4.86653C19.114 4.86761 19.1149 4.86854 19.1155 4.86922C19.1158 4.86954 19.1162 4.86995 19.1165 4.87029C19.1167 4.87047 19.117 4.87075 19.1174 4.87109L19.1174 4.87113C19.8591 5.60253 20.4762 6.44992 20.9445 7.37983L20.1564 7.78101Z" stroke="white" stroke-width="0.0881105"/>
<path d="M3.08313 16.555L3.87109 16.1542C3.88067 16.174 3.89454 16.2017 3.91269 16.2357C3.95091 16.3071 4.00823 16.4063 4.08485 16.5174C4.23786 16.7394 4.46901 17.0111 4.78021 17.2053C5.09216 17.4 5.48445 17.5166 5.95684 17.4274C6.30934 17.3608 6.70423 17.1801 7.14212 16.8352C6.79711 17.2725 6.61628 17.6669 6.54968 18.0191C6.46045 18.491 6.57718 18.883 6.77197 19.1948C6.96631 19.5058 7.23816 19.7368 7.46031 19.8898C7.57155 19.9664 7.67077 20.0238 7.74225 20.062C7.77623 20.0801 7.80398 20.094 7.82382 20.1036L7.42223 20.8914C5.95471 20.1602 4.98495 19.1384 4.91618 19.066C4.91381 19.0635 4.9125 19.0621 4.9123 19.0619C4.91232 19.0619 4.84427 18.9992 4.73016 18.8808C4.61621 18.7626 4.45659 18.5891 4.27336 18.3677C3.91187 17.931 3.45888 17.3081 3.08313 16.555Z" fill="black"/>
<path d="M3.08313 16.555L3.87109 16.1542C3.88067 16.174 3.89454 16.2017 3.91269 16.2357C3.95091 16.3071 4.00823 16.4063 4.08485 16.5174C4.23786 16.7394 4.46901 17.0111 4.78021 17.2053C5.09216 17.4 5.48445 17.5166 5.95684 17.4274C6.30934 17.3608 6.70423 17.1801 7.14212 16.8352C6.79711 17.2725 6.61628 17.6669 6.54968 18.0191C6.46045 18.491 6.57718 18.883 6.77197 19.1948C6.96631 19.5058 7.23816 19.7368 7.46031 19.8898C7.57155 19.9664 7.67077 20.0238 7.74225 20.062C7.77623 20.0801 7.80398 20.094 7.82382 20.1036L7.42223 20.8914C5.95471 20.1602 4.98495 19.1384 4.91618 19.066C4.91381 19.0635 4.9125 19.0621 4.9123 19.0619C4.91232 19.0619 4.84427 18.9992 4.73016 18.8808C4.61621 18.7626 4.45659 18.5891 4.27336 18.3677C3.91187 17.931 3.45888 17.3081 3.08313 16.555Z" stroke="white" stroke-width="0.0881105"/>
<path d="M7.42205 3.04095L7.82251 3.82984C7.80265 3.83941 7.77489 3.85326 7.74086 3.87144C7.66935 3.90961 7.57011 3.96688 7.45884 4.04345C7.23661 4.19632 6.96465 4.42727 6.77026 4.73821C6.57536 5.04992 6.45859 5.44188 6.54781 5.91388C6.61438 6.26608 6.79525 6.66066 7.14041 7.09817C6.70276 6.75344 6.30801 6.57277 5.95559 6.50622C5.48326 6.41706 5.09093 6.53367 4.7789 6.72831C4.46761 6.92248 4.23637 7.19411 4.08325 7.41609C4.00657 7.52723 3.94922 7.62635 3.91098 7.6978C3.8928 7.73174 3.87892 7.75947 3.86934 7.7793L3.08093 7.37804C3.8128 5.91165 4.83656 4.94117 4.90905 4.87244C4.91155 4.87007 4.91292 4.86878 4.9131 4.86856L4.88619 4.84467L4.9131 4.86856H4.91312C4.9141 4.86747 4.97686 4.79969 5.09443 4.68657C5.21279 4.57274 5.38641 4.41325 5.60804 4.23016C6.04521 3.86899 6.66856 3.4164 7.42205 3.04095Z" fill="black"/>
<path d="M7.42205 3.04094L7.82251 3.82984C7.80265 3.83941 7.77489 3.85326 7.74086 3.87144C7.66935 3.90961 7.57011 3.96688 7.45884 4.04345C7.23661 4.19632 6.96465 4.42727 6.77026 4.73821C6.57536 5.04992 6.45859 5.44188 6.54781 5.91388C6.61438 6.26608 6.79525 6.66066 7.14041 7.09817C6.70276 6.75344 6.30801 6.57277 5.95559 6.50623C5.48326 6.41706 5.09093 6.53367 4.7789 6.72831C4.46761 6.92248 4.23637 7.19411 4.08325 7.41609C4.00657 7.52723 3.94922 7.62635 3.91098 7.6978C3.8928 7.73174 3.87892 7.75947 3.86934 7.7793L3.08093 7.37804C3.8128 5.91165 4.83656 4.94117 4.90905 4.87244C4.91155 4.87007 4.91292 4.86878 4.9131 4.86856L4.88619 4.84467L4.9131 4.86856H4.91312C4.9141 4.86747 4.97686 4.79969 5.09443 4.68657C5.21279 4.57274 5.38641 4.41325 5.60804 4.23016C6.04521 3.86899 6.66856 3.4164 7.42205 3.04094Z" stroke="white" stroke-width="0.0881105"/>
<path d="M16.2056 20.1023C16.2254 20.0927 16.2532 20.0788 16.2871 20.0607C16.3586 20.0225 16.4579 19.9652 16.5691 19.8887C16.7913 19.7358 17.0632 19.5049 17.2576 19.1939C17.4524 18.8822 17.5691 18.4903 17.4799 18.0183C17.4133 17.6661 17.2324 17.2716 16.8873 16.8341C17.3248 17.1788 17.7195 17.3594 18.0718 17.4259C18.5442 17.5151 18.9365 17.3985 19.2486 17.2038C19.5599 17.0097 19.7911 16.738 19.9443 16.5161C20.021 16.4049 20.0784 16.3058 20.1166 16.2343C20.1349 16.2004 20.1488 16.1727 20.1582 16.1528L20.9467 16.5541C20.2148 18.0204 19.1923 18.9894 19.1198 19.0581C19.1173 19.0604 19.1159 19.0617 19.1157 19.0619L19.1426 19.0858L19.1157 19.0619C19.115 19.0627 19.0523 19.1306 18.9345 19.2439C18.8162 19.3578 18.6426 19.5173 18.421 19.7004C17.9839 20.0615 17.3606 20.5142 16.6071 20.8896L16.2056 20.1023Z" fill="black"/>
<path d="M16.2056 20.1023C16.2254 20.0927 16.2532 20.0788 16.2871 20.0607C16.3586 20.0225 16.4579 19.9652 16.5691 19.8887C16.7913 19.7358 17.0632 19.5049 17.2576 19.1939C17.4524 18.8822 17.5691 18.4903 17.4799 18.0183C17.4133 17.6661 17.2324 17.2716 16.8873 16.8341C17.3248 17.1788 17.7195 17.3594 18.0718 17.4259C18.5442 17.5151 18.9365 17.3985 19.2486 17.2038C19.5599 17.0097 19.7911 16.738 19.9443 16.5161C20.021 16.4049 20.0784 16.3058 20.1166 16.2343C20.1349 16.2004 20.1488 16.1727 20.1582 16.1528L20.9467 16.5541C20.2148 18.0204 19.1923 18.9894 19.1198 19.0581C19.1173 19.0604 19.1159 19.0617 19.1157 19.0619L19.1426 19.0858L19.1157 19.0619C19.115 19.0627 19.0523 19.1306 18.9345 19.2439C18.8162 19.3578 18.6426 19.5173 18.421 19.7004C17.9839 20.0615 17.3606 20.5142 16.6071 20.8896L16.2056 20.1023Z" stroke="white" stroke-width="0.0881105"/>
</svg>
