<svg width="123" height="32" viewBox="0 0 123 32" fill="none" xmlns="http://www.w3.org/2000/svg">
<path fill-rule="evenodd" clip-rule="evenodd" d="M9.42697 30.7932C11.3411 31.5977 13.4079 32 15.6272 32C17.8743 32 19.8856 31.6255 21.661 30.8765C23.4643 30.1274 24.99 29.1287 26.2384 27.8804C27.4868 26.632 28.3745 25.2449 28.9016 23.7191L23.2007 20.9727C22.6736 22.4707 21.7443 23.7191 20.4127 24.7178C19.1088 25.6888 17.5137 26.1743 15.6272 26.1743C13.7963 26.1743 12.1873 25.7443 10.8002 24.8843C9.4131 24.0243 8.33118 22.8314 7.55441 21.3056C6.92055 20.0144 6.55489 18.5444 6.45743 16.8956H0.00188211C0.092062 18.8476 0.473464 20.6643 1.14609 22.3459C1.9506 24.2878 3.06026 25.9801 4.47509 27.4226C5.88991 28.8652 7.54054 29.9887 9.42697 30.7932ZM0 15.1045C0.0866451 13.1367 0.468674 11.306 1.14609 9.61248C1.92285 7.64283 3.01865 5.95059 4.43347 4.53576C5.8483 3.09319 7.49893 1.98353 9.38536 1.20676C11.2995 0.402253 13.3802 0 15.6272 0C17.8743 0 19.8856 0.374513 21.661 1.12354C23.4643 1.87256 24.99 2.87126 26.2384 4.11963C27.4868 5.36801 28.3745 6.75509 28.9016 8.28089L23.2007 11.0273C22.6736 9.52926 21.7443 8.29476 20.4127 7.3238C19.1088 6.3251 17.5137 5.82575 15.6272 5.82575C13.7963 5.82575 12.1873 6.25574 10.8002 7.11574C9.4131 7.97573 8.33118 9.16862 7.55441 10.6944C6.91532 11.9726 6.54888 13.4426 6.45508 15.1045H0Z" fill="#35393E"/>
<path d="M32.9316 31.5007V0.499428H44.7912C46.9273 0.499428 48.8137 0.873941 50.4505 1.62297C52.115 2.37199 53.4189 3.48166 54.3621 4.95197C55.3053 6.42227 55.7769 8.23935 55.7769 10.4032C55.7769 12.5116 55.2914 14.3148 54.3205 15.8128C53.3495 17.2831 52.0456 18.3928 50.4089 19.1418L57.483 31.5007H50.2424L42.5857 17.8102L46.747 20.2654H39.3816V31.5007H32.9316ZM39.3816 14.6477H44.8328C45.7483 14.6477 46.5389 14.4674 47.2047 14.1067C47.8705 13.7461 48.3837 13.2467 48.7444 12.6087C49.1328 11.9706 49.327 11.2355 49.327 10.4032C49.327 9.54321 49.1328 8.79418 48.7444 8.15613C48.3837 7.51807 47.8705 7.01872 47.2047 6.65808C46.5389 6.29744 45.7483 6.11712 44.8328 6.11712H39.3816V14.6477Z" fill="#35393E"/>
<path fill-rule="evenodd" clip-rule="evenodd" d="M61.5127 16.8956V31.5007H67.9626V16.8956H61.5127ZM61.5127 15.1045H67.9626V0.499428H61.5127V15.1045Z" fill="#35393E"/>
<path d="M84.6429 32.0001C82.701 32.0001 80.87 31.6533 79.15 30.9598C77.4578 30.2385 75.9875 29.2259 74.7391 27.9221C73.5185 26.6182 72.603 25.0785 71.9927 23.3031L77.2775 20.9312C78.0542 22.6234 79.1223 23.955 80.4816 24.926C81.8687 25.8969 83.3945 26.3824 85.059 26.3824C85.9467 26.3824 86.7096 26.2437 87.3477 25.9663C87.9857 25.6889 88.4851 25.3143 88.8457 24.8427C89.2064 24.3434 89.3867 23.7608 89.3867 23.095C89.3867 22.3737 89.1648 21.7634 88.7209 21.2641C88.277 20.737 87.5835 20.3208 86.6403 20.0157L80.5649 18.0183C78.0958 17.2138 76.2372 16.0764 74.9888 14.6061C73.7404 13.108 73.1162 11.3187 73.1162 9.23805C73.1162 7.4071 73.5601 5.79808 74.4478 4.411C75.3633 3.02392 76.6255 1.94199 78.2346 1.16523C79.8713 0.388459 81.7439 7.62939e-05 83.8522 7.62939e-05C85.7109 7.62939e-05 87.4309 0.319105 89.0122 0.957163C90.5935 1.59522 91.9528 2.49683 93.0902 3.66197C94.2554 4.82712 95.1292 6.22808 95.7118 7.86484L90.4686 10.2367C89.886 8.79418 89.0122 7.67064 87.847 6.86614C86.6819 6.03389 85.3503 5.61776 83.8522 5.61776C82.9922 5.61776 82.2293 5.75647 81.5635 6.03389C80.8977 6.3113 80.3845 6.71356 80.0239 7.24065C79.6632 7.74 79.4829 8.32257 79.4829 8.98837C79.4829 9.70966 79.7187 10.3477 80.1903 10.9025C80.6619 11.4296 81.3694 11.8458 82.3126 12.1509L88.2632 14.0651C90.7599 14.8696 92.6186 15.9931 93.8392 17.4357C95.0876 18.8783 95.7118 20.6399 95.7118 22.7205C95.7118 24.5237 95.2402 26.1327 94.297 27.5475C93.3538 28.9346 92.0499 30.0304 90.3854 30.8349C88.7486 31.6117 86.8345 32.0001 84.6429 32.0001Z" fill="#35393E"/>
<path d="M99.7417 31.5007V0.499428H111.643C113.779 0.499428 115.665 0.873941 117.302 1.62297C118.967 2.37199 120.271 3.48166 121.214 4.95197C122.157 6.42227 122.629 8.23935 122.629 10.4032C122.629 12.5116 122.143 14.3009 121.172 15.7712C120.229 17.2415 118.925 18.3651 117.261 19.1418C115.624 19.8908 113.751 20.2654 111.643 20.2654H106.192V31.5007H99.7417ZM106.192 14.6477H111.684C112.6 14.6477 113.391 14.4674 114.056 14.1067C114.722 13.7461 115.235 13.2467 115.596 12.6087C115.984 11.9706 116.179 11.2355 116.179 10.4032C116.179 9.54321 115.984 8.79418 115.596 8.15613C115.235 7.51807 114.722 7.01872 114.056 6.65808C113.391 6.29744 112.6 6.11712 111.684 6.11712H106.192V14.6477Z" fill="#35393E"/>
</svg>
