<svg width="94" height="20" viewBox="0 0 94 20" fill="none" xmlns="http://www.w3.org/2000/svg">
<path d="M11.3984 6.68488C11.0889 4.05266 8.19524 0.78546 4.94444 3.01692C3.04992 4.31738 2.86529 7.72919 4.18614 9.3759C5.18308 10.6188 6.71688 10.6102 8.40943 10.6006C8.55822 10.5998 8.70862 10.599 8.8596 10.599V11.3527L8.74883 11.3529C7.24823 11.3602 6.3406 11.5571 5.61808 12.6445C4.24741 14.7073 4.96545 16.5659 6.50991 17.2105C9.45877 18.4413 11.1224 15.6911 11.4589 14.0143C11.638 18.0787 8.85924 21.4187 5.10268 19.0939C2.92454 17.7459 2.29828 14.7058 3.59086 12.516C4.01142 11.8035 4.46873 11.3544 4.95032 11.0764C3.6738 10.747 2.45778 10.0418 1.59589 8.54486C0.747006 7.07046 0.282266 3.04691 3.70362 1.01766C8.09354 -1.58604 11.3985 2.44224 11.3984 6.68488Z" fill="#35393E"/>
<path d="M18.9401 3.01692C15.6893 0.78546 12.7957 4.05266 12.4861 6.68488C12.4861 2.44224 15.791 -1.58604 20.1809 1.01766C23.6023 3.04691 23.1376 7.07046 22.2887 8.54486C21.4268 10.0418 20.2108 10.747 18.9342 11.0764C19.4158 11.3544 19.8731 11.8035 20.2937 12.516C21.5863 14.7058 20.96 17.7459 18.7819 19.0939C15.0253 21.4187 12.2466 18.0787 12.4257 14.0143C12.7621 15.6911 14.4258 18.4413 17.3747 17.2105C18.9191 16.5659 19.6372 14.7073 18.2665 12.6445C17.544 11.5571 16.6363 11.3602 15.1357 11.3529C15.0985 11.3528 15.0616 11.3527 15.025 11.3527V10.599C15.176 10.599 15.3261 10.5998 15.4749 10.6006C17.1675 10.6102 18.7015 10.6188 19.6984 9.3759C21.0193 7.72919 20.8347 4.31738 18.9401 3.01692Z" fill="#35393E"/>
<path d="M11.8711 8.98276C11.8844 8.90224 12.0002 8.90224 12.0134 8.98276V8.98276C12.1745 9.96037 12.9407 10.7266 13.9183 10.8876L14.3503 10.9588L13.9183 11.0299C12.9407 11.1909 12.1745 11.9572 12.0134 12.9348V12.9348C12.0002 13.0153 11.8844 13.0153 11.8711 12.9348V12.9348C11.7101 11.9572 10.9439 11.1909 9.96628 11.0299L9.5343 10.9588L9.96628 10.8876C10.9439 10.7266 11.7101 9.96037 11.8711 8.98276V8.98276Z" stroke="#35393E" stroke-width="0.761905"/>
<path d="M32.4201 7.08999C33.2601 7.08999 33.9801 7.26332 34.5801 7.60999C35.1801 7.95666 35.6401 8.43666 35.9601 9.04999C36.2935 9.64999 36.4601 10.3433 36.4601 11.13C36.4601 11.3033 36.4535 11.47 36.4401 11.63C36.4268 11.7767 36.4001 11.9167 36.3601 12.05H30.3401C30.3535 13.4233 30.6068 14.41 31.1001 15.01C31.6068 15.61 32.3401 15.91 33.3001 15.91C33.9668 15.91 34.5068 15.8033 34.9201 15.59C35.3335 15.3633 35.7135 15.05 36.0601 14.65L36.3801 14.95C35.9801 15.6833 35.4335 16.2567 34.7401 16.67C34.0601 17.07 33.2468 17.27 32.3001 17.27C31.3535 17.27 30.5201 17.07 29.8001 16.67C29.0801 16.27 28.5135 15.6967 28.1001 14.95C27.7001 14.19 27.5001 13.2833 27.5001 12.23C27.5001 11.1367 27.7335 10.21 28.2001 9.44999C28.6801 8.68999 29.2935 8.10999 30.0401 7.70999C30.8001 7.29666 31.5935 7.08999 32.4201 7.08999ZM32.3201 7.66999C31.9335 7.66999 31.5935 7.78332 31.3001 8.00999C31.0201 8.22332 30.7935 8.60999 30.6201 9.16999C30.4601 9.71666 30.3668 10.49 30.3401 11.49H33.9201C34.0668 10.1433 34.0135 9.16999 33.7601 8.56999C33.5068 7.96999 33.0268 7.66999 32.3201 7.66999ZM37.4787 16.99V16.61L37.7987 16.53C38.2387 16.3967 38.4587 16.07 38.4587 15.55V9.64999C38.4454 9.36999 38.3987 9.15666 38.3187 9.00999C38.2387 8.84999 38.0654 8.74332 37.7987 8.68999L37.4787 8.60999V8.24999L40.7187 7.08999L40.9587 7.30999L41.0987 8.54999C41.5787 8.12332 42.112 7.77666 42.6987 7.50999C43.2987 7.22999 43.8854 7.08999 44.4587 7.08999C45.3387 7.08999 46.012 7.32999 46.4787 7.80999C46.9587 8.28999 47.1987 9.02332 47.1987 10.01V15.57C47.1987 16.09 47.4387 16.4167 47.9187 16.55L48.1387 16.61V16.99H43.5387V16.61L43.8387 16.53C44.2787 16.3833 44.4987 16.0567 44.4987 15.55V9.60999C44.4987 9.14332 44.3987 8.80332 44.1987 8.58999C43.9987 8.37666 43.6654 8.26999 43.1987 8.26999C42.5454 8.26999 41.8654 8.55666 41.1587 9.12999V15.57C41.1587 16.09 41.392 16.4167 41.8587 16.55L42.0587 16.61V16.99H37.4787ZM53.8631 17.27C52.9564 17.27 52.1364 17.0767 51.4031 16.69C50.6698 16.29 50.0898 15.7167 49.6631 14.97C49.2498 14.21 49.0431 13.29 49.0431 12.21C49.0431 11.13 49.2764 10.21 49.7431 9.44999C50.2098 8.68999 50.8298 8.10999 51.6031 7.70999C52.3898 7.29666 53.2498 7.08999 54.1831 7.08999C54.9431 7.08999 55.5898 7.21666 56.1231 7.46999C56.6564 7.72332 57.0631 8.04999 57.3431 8.44999C57.6231 8.83666 57.7631 9.24999 57.7631 9.68999C57.7631 10.0633 57.6498 10.35 57.4231 10.55C57.2098 10.75 56.9298 10.85 56.5831 10.85C56.2098 10.85 55.9031 10.7167 55.6631 10.45C55.4364 10.1833 55.3031 9.84332 55.2631 9.42999C55.2498 9.16332 55.2498 8.93666 55.2631 8.74999C55.2898 8.56332 55.2898 8.38332 55.2631 8.20999C55.2098 7.98332 55.1164 7.82999 54.9831 7.74999C54.8631 7.66999 54.6898 7.62999 54.4631 7.62999C53.6231 7.62999 52.9764 7.96999 52.5231 8.64999C52.0831 9.31666 51.8631 10.4033 51.8631 11.91C51.8631 13.2033 52.1098 14.1967 52.6031 14.89C53.0964 15.5833 53.8631 15.93 54.9031 15.93C55.5164 15.93 56.0231 15.8167 56.4231 15.59C56.8231 15.35 57.1898 15.01 57.5231 14.57L57.8431 14.81C57.5098 15.61 56.9964 16.2233 56.3031 16.65C55.6231 17.0633 54.8098 17.27 53.8631 17.27ZM58.4367 16.99V16.61L58.7367 16.53C59.1767 16.3833 59.3967 16.05 59.3967 15.53C59.3967 15.0767 59.3967 14.6233 59.3967 14.17C59.41 13.7033 59.4167 13.2433 59.4167 12.79V5.18999C59.4167 4.90999 59.37 4.70332 59.2767 4.56999C59.1834 4.42332 59.0034 4.31666 58.7367 4.24999L58.4367 4.16999V3.78999L61.9367 2.94999L62.1967 3.12999L62.1167 5.94999V15.53C62.13 15.7967 62.1834 16.0167 62.2767 16.19C62.3834 16.35 62.5634 16.4633 62.8167 16.53L63.0967 16.61V16.99H58.4367ZM66.7068 17.27C65.9468 17.27 65.3002 17.0567 64.7668 16.63C64.2468 16.19 63.9868 15.5633 63.9868 14.75C63.9868 14.11 64.2935 13.5233 64.9068 12.99C65.5335 12.4433 66.5135 12.0433 67.8468 11.79C68.0735 11.7367 68.3335 11.69 68.6268 11.65C68.9335 11.5967 69.2335 11.5433 69.5268 11.49V10.07C69.5268 9.16332 69.4135 8.53666 69.1868 8.18999C68.9602 7.84332 68.6002 7.66999 68.1068 7.66999H68.0468C67.7402 7.66999 67.4935 7.76999 67.3068 7.96999C67.1335 8.15666 67.0202 8.46999 66.9668 8.90999L66.9068 9.16999C66.8668 9.70332 66.7268 10.0967 66.4868 10.35C66.2468 10.59 65.9468 10.71 65.5868 10.71C65.2535 10.71 64.9735 10.61 64.7468 10.41C64.5335 10.1967 64.4268 9.92332 64.4268 9.58999C64.4268 9.04332 64.6135 8.58332 64.9868 8.20999C65.3602 7.83666 65.8535 7.55666 66.4668 7.36999C67.0935 7.18332 67.7668 7.08999 68.4868 7.08999C69.6735 7.08999 70.5802 7.37666 71.2068 7.94999C71.8335 8.52332 72.1468 9.45666 72.1468 10.75V15.21C72.1468 15.7833 72.4202 16.07 72.9668 16.07H73.4268L73.6268 16.29C73.3868 16.5967 73.1202 16.83 72.8268 16.99C72.5335 17.1633 72.1335 17.25 71.6268 17.25C71.0535 17.25 70.5935 17.1167 70.2468 16.85C69.9135 16.57 69.6935 16.2033 69.5868 15.75C69.1602 16.2033 68.7402 16.57 68.3268 16.85C67.9135 17.13 67.3735 17.27 66.7068 17.27ZM67.8668 15.99C68.1335 15.99 68.3868 15.93 68.6268 15.81C68.8668 15.69 69.1668 15.49 69.5268 15.21V12.01C69.1802 12.0633 68.8268 12.13 68.4668 12.21C67.8935 12.3433 67.4268 12.59 67.0668 12.95C66.7202 13.31 66.5468 13.7967 66.5468 14.41C66.5468 14.9433 66.6668 15.3433 66.9068 15.61C67.1602 15.8633 67.4802 15.99 67.8668 15.99ZM78.1097 17.05L74.5897 8.58999C74.443 8.21666 74.183 7.97666 73.8097 7.86999L73.3897 7.76999V7.38999H78.4497V7.76999L77.9297 7.88999C77.503 7.99666 77.3763 8.26999 77.5497 8.70999L79.6497 14.29L81.6097 8.74999C81.6763 8.52332 81.6897 8.34332 81.6497 8.20999C81.623 8.06332 81.4963 7.96332 81.2697 7.90999L80.6897 7.76999V7.38999H83.7297V7.76999L83.0697 7.92999C82.683 8.02332 82.423 8.26332 82.2897 8.64999L79.2697 17.05H78.1097ZM88.7482 7.08999C89.5882 7.08999 90.3082 7.26332 90.9082 7.60999C91.5082 7.95666 91.9682 8.43666 92.2882 9.04999C92.6216 9.64999 92.7882 10.3433 92.7882 11.13C92.7882 11.3033 92.7816 11.47 92.7682 11.63C92.7549 11.7767 92.7282 11.9167 92.6882 12.05H86.6682C86.6816 13.4233 86.9349 14.41 87.4282 15.01C87.9349 15.61 88.6682 15.91 89.6282 15.91C90.2949 15.91 90.8349 15.8033 91.2482 15.59C91.6616 15.3633 92.0416 15.05 92.3882 14.65L92.7082 14.95C92.3082 15.6833 91.7616 16.2567 91.0682 16.67C90.3882 17.07 89.5749 17.27 88.6282 17.27C87.6816 17.27 86.8482 17.07 86.1282 16.67C85.4082 16.27 84.8416 15.6967 84.4282 14.95C84.0282 14.19 83.8282 13.2833 83.8282 12.23C83.8282 11.1367 84.0616 10.21 84.5282 9.44999C85.0082 8.68999 85.6216 8.10999 86.3682 7.70999C87.1282 7.29666 87.9216 7.08999 88.7482 7.08999ZM88.6482 7.66999C88.2616 7.66999 87.9216 7.78332 87.6282 8.00999C87.3482 8.22332 87.1216 8.60999 86.9482 9.16999C86.7882 9.71666 86.6949 10.49 86.6682 11.49H90.2482C90.3949 10.1433 90.3416 9.16999 90.0882 8.56999C89.8349 7.96999 89.3549 7.66999 88.6482 7.66999Z" fill="#35393E"/>
</svg>
