<svg width="259" height="37" viewBox="0 0 259 37" fill="none" xmlns="http://www.w3.org/2000/svg">
<path d="M6.76834 36.332V33.982H12.4553V5.78203H9.30634C3.71334 5.78203 2.06834 8.03803 2.06834 13.02H0.000343837V3.43203H27.4953L34.7803 1.50503V18.143C36.3313 15.793 39.3393 14.054 42.3473 14.054C46.2953 14.054 49.0683 16.592 49.0683 20.916V34.217H52.4053V36.332H41.5953V34.217H45.0263V21.574C45.0263 18.707 43.2873 17.062 40.7023 17.062C38.4463 17.062 36.0493 18.237 34.7803 20.587V34.217H38.2113V36.332H27.3073V34.217H30.7383V5.78203H16.7793V33.982H22.5133V36.332H6.76834ZM63.6817 36.896C58.2297 36.896 53.8587 32.807 53.8587 26.086C53.8587 18.989 58.3707 14.054 64.4337 14.054C69.3217 14.054 73.0817 17.203 73.1287 23.454L57.5717 23.36C57.5247 23.736 57.5247 24.018 57.5247 24.394C57.5247 29.047 60.2037 33.183 64.8567 33.183C67.4417 33.183 70.0267 31.726 71.0607 29.376H73.0817C71.6247 34.452 67.9587 36.896 63.6817 36.896ZM57.8537 21.527L68.5697 21.386C68.4287 18.19 66.7837 16.263 63.9167 16.263C61.0497 16.263 58.6997 18.237 57.8537 21.527ZM84.5937 36.332V33.982H88.9177V5.78203H84.5937V3.43203H97.5657V5.78203H93.2417V33.982H97.5657V36.332H84.5937ZM114.547 36.332V34.217H117.978V21.574C117.978 18.707 116.239 17.062 113.654 17.062C111.398 17.062 109.001 18.237 107.732 20.587V34.217H111.163V36.332H100.306V34.217H103.69V19.459C103.69 18.143 102.844 17.391 100.118 17.908V16.122L107.732 13.772V18.143C109.283 15.793 112.291 14.054 115.299 14.054C119.247 14.054 122.02 16.592 122.02 20.916V34.217H125.357V36.332H114.547ZM134.939 36.896C132.025 36.896 129.957 35.298 129.957 32.055V17.203H125.351V14.618H129.957V8.97803L133.952 7.28603V14.618H140.767L140.015 17.203H133.952V31.209C133.952 32.854 134.798 33.653 136.161 33.653C137.43 33.653 138.793 32.76 139.31 31.256H141.237C140.25 35.251 137.806 36.896 134.939 36.896ZM152.444 36.896C146.992 36.896 142.621 32.807 142.621 26.086C142.621 18.989 147.133 14.054 153.196 14.054C158.084 14.054 161.844 17.203 161.891 23.454L146.334 23.36C146.287 23.736 146.287 24.018 146.287 24.394C146.287 29.047 148.966 33.183 153.619 33.183C156.204 33.183 158.789 31.726 159.823 29.376H161.844C160.387 34.452 156.721 36.896 152.444 36.896ZM146.616 21.527L157.332 21.386C157.191 18.19 155.546 16.263 152.679 16.263C149.812 16.263 147.462 18.237 146.616 21.527ZM164.349 36.332V34.217H167.733V19.459C167.733 18.002 166.887 17.25 164.161 17.767V16.122L171.634 13.772V20.211C172.574 17.156 175.676 13.866 180.282 13.96V18.566C179.812 18.425 179.154 18.331 178.402 18.331C175.488 18.331 172.997 19.741 171.775 22.373V34.217H176.522V36.332H164.349ZM181.994 36.332V34.217H186.036V17.203H181.853V14.618H186.036V11.892C186.036 4.65403 191.629 0.00102836 198.068 0.00102836C198.726 0.00102836 199.337 0.0480306 199.901 0.142029V4.46603C198.256 3.62003 196.611 3.24403 195.154 3.24403C191.864 3.24403 190.078 5.26503 190.078 9.07203V14.618H196.752L196.047 17.203H190.078V34.217H194.308V36.332H181.994ZM208.63 36.896C202.614 36.896 197.679 32.478 197.679 25.428C197.679 18.378 202.614 14.054 208.63 14.054C214.646 14.054 219.581 18.378 219.581 25.428C219.581 32.478 214.646 36.896 208.63 36.896ZM208.63 34.734C212.531 34.734 215.257 31.115 215.257 25.428C215.257 19.741 212.531 16.216 208.63 16.216C204.729 16.216 202.003 19.741 202.003 25.428C202.003 31.115 204.729 34.734 208.63 34.734ZM221.127 36.332V34.217H224.652V6.20503C224.652 4.51303 223.806 3.94903 220.704 4.51303V2.63303L228.694 0.51803V34.217H232.219V36.332H221.127ZM243.087 36.896C237.87 36.896 233.781 32.619 233.781 26.18C233.781 19.083 239.045 14.054 245.531 14.054C247.505 14.054 249.338 14.524 250.654 15.229V6.20503C250.654 4.51303 249.808 3.94903 246.706 4.51303V2.63303L254.696 0.51803V31.303C254.696 32.76 255.542 33.512 258.315 32.995V34.64L250.795 36.99V32.431C249.15 35.063 246.33 36.896 243.087 36.896ZM237.823 25.099C237.823 29.987 240.831 33.606 244.873 33.606C247.458 33.606 249.573 32.149 250.654 30.081V20.869C250.654 17.767 248.351 16.169 245.531 16.169C240.972 16.169 237.823 20.023 237.823 25.099Z" fill="#D9FCE8"/>
</svg>
